<svg xmlns="http://www.w3.org/2000/svg" viewBox="0 0 1122.52 265.852"><defs><clipPath id="a" clipPathUnits="userSpaceOnUse"><path d="M-675.26 100.633h841.89V-98.756h-841.89Z"/></clipPath><clipPath id="b" clipPathUnits="userSpaceOnUse"><path d="M-786.393 85.427h841.89v-199.389h-841.89Z"/></clipPath><clipPath id="c" clipPathUnits="userSpaceOnUse"><path d="M-403.895 160.386h841.89v-199.39h-841.89Z"/></clipPath><clipPath id="d" clipPathUnits="userSpaceOnUse"><path d="M-542.126 18.68h841.89v-199.39h-841.89Z"/></clipPath><clipPath id="e" clipPathUnits="userSpaceOnUse"><path d="M-294.802 177.93h841.89V-21.46h-841.89Z"/></clipPath><clipPath id="f" clipPathUnits="userSpaceOnUse"><path d="M-294.802 172.195h841.89V-27.194h-841.89Z"/></clipPath><clipPath id="g" clipPathUnits="userSpaceOnUse"><path d="M-106.29 14.124H735.6v-199.389h-841.89Z"/></clipPath><clipPath id="h" clipPathUnits="userSpaceOnUse"><path d="M-520.195 142.725h841.89v-199.39h-841.89Z"/></clipPath></defs><path d="m0 0 23.674-46.771h50.604L45.352 9.507Z" style="fill:#ffffff;fill-opacity:1;fill-rule:nonzero;stroke:none" transform="matrix(1.33333 0 0 -1.33333 735.338 179.554)"/><path d="M0 0c-.003.268-.015.531-.015.801 0 28.496 16.186 45.59 56.306 45.59 31.461 0 48.229-10.537 54.089-28.58l48.629 7.847C148.83 64.279 113.358 86.509 56.291 86.509c-68.614 0-105.77-31.683-105.77-85.708 0-2.981.132-5.883.356-8.728z" clip-path="url(#a)" style="fill:#ffffff;fill-opacity:1;fill-rule:nonzero;stroke:none" transform="matrix(1.33333 0 0 -1.33333 900.347 134.178)"/><path d="M0 0c1.138-4.409 1.689-9.221 1.689-14.406 0-28.49-16.413-46.046-56.531-46.046-35.644 0-52.531 13.84-55.726 37.274l-48.373-10.14c7.914-42.674 43.892-67.252 104.099-67.252 68.383 0 105.767 32.139 105.767 86.164 0 8.749-.995 16.915-2.946 24.464z" clip-path="url(#b)" style="fill:#ffffff;fill-opacity:1;fill-rule:nonzero;stroke:none" transform="matrix(1.33333 0 0 -1.33333 1048.524 113.903)"/><path d="m0 0-10.849-21.05h50.832L55.125 8.865Z" clip-path="url(#c)" style="fill:#ffffff;fill-opacity:1;fill-rule:nonzero;stroke:none" transform="matrix(1.33333 0 0 -1.33333 538.527 213.848)"/><path d="M0 0h-65.193l-66.684-129.379 56.503 11.812 42.776 84.511 35.395-69.929 46.297 7.47z" clip-path="url(#d)" style="fill:#ffffff;fill-opacity:1;fill-rule:nonzero;stroke:none" transform="matrix(1.33333 0 0 -1.33333 722.835 24.907)"/><path d="M0 0v-3.507h47.184V7.588Z" clip-path="url(#e)" style="fill:#ffffff;fill-opacity:1;fill-rule:nonzero;stroke:none" transform="matrix(1.33333 0 0 -1.33333 393.069 237.24)"/><path d="m0 0 47.184 9.865v103.527h74.312v40.123H-74.54v-40.123H0Z" clip-path="url(#f)" style="fill:#ffffff;fill-opacity:1;fill-rule:nonzero;stroke:none" transform="matrix(1.33333 0 0 -1.33333 393.069 229.593)"/><path d="M0 0c59.952 0 93.915-25.755 98.704-67.702H48.555C45.363-52.657 30.09-40.118 0-40.118c-34.876 0-51.745-17.095-51.745-45.591 0-28.721 17.097-46.046 51.745-46.046 30.09 0 45.363 12.764 48.555 28.04h50.149C93.915-145.888 59.952-171.873 0-171.873c-65.422 0-101.21 30.315-101.21 86.164C-101.21-30.09-65.422 0 0 0" clip-path="url(#g)" style="fill:#ffffff;fill-opacity:1;fill-rule:nonzero;stroke:none" transform="matrix(1.33333 0 0 -1.33333 141.719 18.832)"/><path d="M0 0c5.276 7.689 18.16 11.426 28.481 14.678-10.801-.658-24.169-1.781-31.848 3.51-7.689 5.276-11.426 18.16-14.678 28.481.659-10.801 1.781-24.169-3.51-31.848C-26.831 7.132-39.715 3.395-50.036.143c10.801.659 24.169 1.781 31.848-3.51 7.689-5.276 11.426-18.16 14.678-28.481C-4.169-21.047-5.291-7.679 0 0" clip-path="url(#h)" style="fill:#00e4d8;fill-opacity:1;fill-rule:nonzero;stroke:none" transform="matrix(1.33333 0 0 -1.33333 693.593 190.3)"/></svg>